<?xml version="1.0" encoding="UTF-8" standalone="no"?>
<svg
   width="128"
   height="128"
   fill="currentColor"
   class="bi bi-vector-pen"
   viewBox="0 0 128 128"
   version="1.1"
   id="svg2"
   sodipodi:docname="logo-small.svg"
   inkscape:version="1.4 (e7c3feb100, 2024-10-09)"
   xmlns:inkscape="http://www.inkscape.org/namespaces/inkscape"
   xmlns:sodipodi="http://sodipodi.sourceforge.net/DTD/sodipodi-0.dtd"
   xmlns="http://www.w3.org/2000/svg"
   xmlns:svg="http://www.w3.org/2000/svg">
  <defs
     id="defs2" />
  <sodipodi:namedview
     id="namedview2"
     pagecolor="#ffffff"
     bordercolor="#000000"
     borderopacity="0.25"
     inkscape:showpageshadow="2"
     inkscape:pageopacity="0.0"
     inkscape:pagecheckerboard="0"
     inkscape:deskcolor="#d1d1d1"
     inkscape:zoom="1.9886702"
     inkscape:cx="-13.074063"
     inkscape:cy="159.15157"
     inkscape:window-width="1696"
     inkscape:window-height="1059"
     inkscape:window-x="0"
     inkscape:window-y="32"
     inkscape:window-maximized="1"
     inkscape:current-layer="svg2" />
  <path
     sodipodi:type="star"
     style="fill:#ffffff;fill-opacity:1;stroke:#000000;stroke-width:0.624439;stroke-linecap:round;stroke-linejoin:round;stroke-dasharray:none;stroke-dashoffset:0;stroke-opacity:1"
     id="path5"
     inkscape:flatsided="true"
     sodipodi:sides="5"
     sodipodi:cx="3.5887256"
     sodipodi:cy="1.0555075"
     sodipodi:r1="7.0931363"
     sodipodi:r2="5.7384677"
     sodipodi:arg1="0.93324753"
     sodipodi:arg2="1.5615661"
     inkscape:rounded="0"
     inkscape:randomized="0"
     d="M 7.8107557,6.7552483 -0.52737091,6.8322136 -3.1771921,-1.0740325 3.523255,-6.0373266 10.31418,-1.198565 Z"
     inkscape:transform-center-x="-0.040344043"
     inkscape:transform-center-y="-6.2379686"
     transform="matrix(8.8987361,0.09678623,-0.10054533,9.2443481,31.960493,59.831502)" />
  <text
     xml:space="preserve"
     style="font-weight:bold;font-size:4.59244px;line-height:0;font-family:Montserrat;-inkscape-font-specification:'Montserrat Bold';text-align:start;writing-mode:lr-tb;direction:ltr;text-anchor:start;display:none;fill:#ffffff;fill-opacity:1;stroke:none;stroke-width:0.144625;stroke-linecap:round;stroke-linejoin:round;stroke-dasharray:none;stroke-opacity:1"
     x="3.3365262"
     y="15.189817"
     id="text6-1"
     inkscape:label="text6"><tspan
       sodipodi:role="line"
       id="tspan6-7"
       x="0"
       y="0"
       style="font-style:normal;font-variant:normal;font-weight:bold;font-stretch:normal;font-family:'Montserrat Alternates';-inkscape-font-specification:'Montserrat Alternates Bold';fill:#ffffff;fill-opacity:1;stroke:none;stroke-width:0.144625;stroke-dasharray:none;stroke-opacity:1">PDF</tspan></text>
  <path
     style="display:inline;fill:#b3b3b3;fill-opacity:1;stroke:none;stroke-width:5.89444;stroke-linecap:round;stroke-linejoin:round;stroke-dasharray:none;stroke-opacity:1"
     d="m 53.302149,85.685632 8.93747,-57.383005 17.012832,-9.726313 24.828139,12.794442 1.27828,26.258494 z"
     id="path6"
     sodipodi:nodetypes="cccccc" />
  <path
     style="font-weight:bold;font-size:35.5466px;line-height:0;font-family:'Montserrat Alternates';-inkscape-font-specification:'Montserrat Alternates Bold';fill:#000000;stroke-width:1.11944;stroke-linecap:round;stroke-linejoin:round"
     d="m 29.105159,91.401559 v 24.882621 h 5.758549 v -6.8605 h 5.012071 c 6.647214,0 10.806166,-3.44802 10.806166,-8.99328 0,-5.580821 -4.158952,-9.028841 -10.806166,-9.028841 z m 5.758549,13.329971 v -8.63782 h 4.692151 c 3.519114,0 5.296444,1.599597 5.296444,4.33669 0,2.70154 -1.77733,4.30113 -5.296444,4.30113 z m 31.20992,11.55265 c 8.140171,0 13.720987,-4.90543 13.720987,-12.44131 0,-7.53588 -5.580816,-12.441311 -13.720987,-12.441311 H 54.769809 v 24.882621 z m -5.54527,-20.154923 h 5.260897 c 4.940977,0 8.175718,2.950367 8.175718,7.713613 0,4.76324 -3.234741,7.71361 -8.175718,7.71361 H 60.528358 Z M 95.7195,95.88043 c 1.741784,0 3.590207,0.391013 5.11871,1.386318 l 1.77733,-4.549965 C 100.76712,91.579292 98.172216,90.975 95.328488,90.975 c -7.180414,0 -11.410459,3.732393 -11.410459,10.13078 v 15.1784 h 5.758549 v -9.06439 h 10.237421 v -4.62105 H 89.676578 v -1.52851 c 0,-3.448016 2.061703,-5.1898 6.042922,-5.1898 z"
     id="text6"
     inkscape:label="text6"
     aria-label="PDF" />
  <g
     id="g3"
     transform="matrix(5.3311127,-0.83086955,0.83086955,5.3311127,32.585819,10.548105)"
     style="display:inline">
    <path
       fill-rule="evenodd"
       d="m 10.558466,0.63235756 c 0.195364,-0.19585838 0.512636,-0.19585838 0.708,0 l 4,4.00000004 c 0.195858,0.1953639 0.195858,0.5126361 0,0.708 l -1.902,1.902 -0.829,3.3130004 c -0.128252,0.513207 -0.517344,0.920917 -1.024,1.073 l -10.3450001,3.104 3.104,-10.3460004 c 0.1522022,-0.5060152 0.5594223,-0.8946217 1.072,-1.023 l 3.313,-0.828 z m -1.8000001,2.90800004 -3.173,0.793 c -0.1713611,0.04277 -0.3074455,0.172772 -0.358,0.342 l -2.57,8.5650004 8.5670001,-2.57 c 0.168201,-0.05097 0.297288,-0.186514 0.34,-0.357 l 0.794,-3.1740004 -3.6000001,-3.6 z"
       id="path1"
       style="stroke-width:1.79777;stroke-dasharray:none"
       sodipodi:nodetypes="ccccccccccccccccccccc" />
    <path
       fill-rule="evenodd"
       d="m 2.7444659,13.214358 5.168,-4.2280004 a 1,1 0 1 0 -1,-1 l -4.228,5.1680004 -0.026,0.086 z"
       id="path2" />
  </g>
  <path
     sodipodi:type="star"
     style="display:none;fill:none;fill-opacity:1;stroke:#000000;stroke-linejoin:bevel;stroke-opacity:1"
     id="path3"
     inkscape:flatsided="true"
     sodipodi:sides="5"
     sodipodi:cx="0.9173823"
     sodipodi:cy="0.87151319"
     sodipodi:r1="7.4768066"
     sodipodi:r2="6.0488634"
     sodipodi:arg1="-2.2081625"
     sodipodi:arg2="-1.579844"
     inkscape:rounded="0"
     inkscape:randomized="0"
     d="M -3.5319217,-5.1373412 5.2572319,-5.2168645 8.0488609,3.1175432 0.98502885,8.3480138 -6.1722884,3.2462146 Z"
     inkscape:transform-center-x="0.020472424"
     inkscape:transform-center-y="-0.72604378"
     transform="matrix(0.84513353,-0.61330002,0.61330002,0.84513353,6.7990879,8.427118)" />
  <text
     xml:space="preserve"
     style="font-weight:bold;font-size:35.5466px;line-height:0;font-family:Montserrat;-inkscape-font-specification:'Montserrat Bold';text-align:start;writing-mode:lr-tb;direction:ltr;text-anchor:start;display:none;fill:#000000;fill-opacity:1;stroke:none;stroke-width:1.11944;stroke-linecap:round;stroke-linejoin:round;stroke-dasharray:none;stroke-opacity:1"
     x="26.154791"
     y="115.48382"
     id="text1"
     inkscape:label="text6"><tspan
       sodipodi:role="line"
       id="tspan1"
       x="0"
       y="0"
       style="font-style:normal;font-variant:normal;font-weight:bold;font-stretch:normal;font-family:'Montserrat Alternates';-inkscape-font-specification:'Montserrat Alternates Bold';fill:#000000;fill-opacity:1;stroke:none;stroke-width:1.11944;stroke-dasharray:none;stroke-opacity:1">PDF</tspan></text>
</svg>
