<?xml version="1.0" encoding="UTF-8"?>
<svg class="bi bi-vector-pen" width="128" height="128" fill="currentColor" version="1.1" viewBox="0 0 128 128" xmlns="http://www.w3.org/2000/svg">
 <path d="m84.48 1.8008a4.4307 4.4307 0 0 1 6.2738 0l35.445 35.445a4.4307 4.4307 0 0 1 0 6.2738l-16.854 16.854-7.3461 29.358a13.292 13.292 0 0 1-9.074 9.5082l-91.671 27.506 27.506-91.68a13.292 13.292 0 0 1 9.4994-9.0652l29.358-7.3372zm-15.95 25.769-28.117 7.0271a4.4307 4.4307 0 0 0-3.1724 3.0306l-22.774 75.898 75.915-22.774a4.4307 4.4307 0 0 0 3.0129-3.1635l7.0359-28.126-31.901-31.901z" fill-rule="evenodd" stroke-width="8.8614"/>
 <path d="m15.237 113.29 45.796-37.466a8.8614 8.8614 0 1 0-8.8614-8.8614l-37.466 45.796-0.2304 0.76208z" fill-rule="evenodd" stroke-width="8.8614"/>
</svg>
